<svg width="14" height="15" viewBox="0 0 14 15" fill="none" xmlns="http://www.w3.org/2000/svg">
<path fill-rule="evenodd" clip-rule="evenodd" d="M2.68524 13.4986C5.15331 15.0651 8.84684 14.43 11.4488 11.8281C14.3777 8.89913 14.8143 4.58702 12.424 2.19669C10.0337 -0.193635 5.72158 0.24299 2.79265 3.17192C-0.136286 6.10085 -0.572911 10.413 1.81742 12.8033C1.86268 12.8486 1.90863 12.8928 1.95524 12.936L3.93422 10.4942L3.93422 7.79853L4.59303 9.82551L6.01421 8.22338L5.73683 6.38754L6.52477 7.49944L8.56521 5.21075L7.13071 7.79853L8.56521 8.22338L6.75108 8.62078L5.15739 10.2435L7.66512 10.4942L4.59303 11.1574L2.68524 13.4986Z" fill="white"/>
</svg>
