<svg width="16" height="16" viewBox="0 0 16 16" fill="none" xmlns="http://www.w3.org/2000/svg">
<path fill-rule="evenodd" clip-rule="evenodd" d="M3.77011 12.4502L5.84481 11.8486L7.78716 15.4001C7.87918 15.5683 8.12082 15.5683 8.21284 15.4001L10.1552 11.8486L12.2299 12.4502C12.4141 12.5036 12.5845 12.3323 12.5301 12.1484L11.9306 10.1223L15.3738 8.23914C15.542 8.14713 15.542 7.90548 15.3738 7.81347L11.8991 5.91313L12.5301 3.78059C12.5845 3.5967 12.4141 3.42537 12.2299 3.47878L10.0968 4.09727L8.21284 0.652538C8.12082 0.48429 7.87918 0.484289 7.78716 0.652537L5.90317 4.09727L3.77011 3.47878C3.58593 3.42537 3.41553 3.5967 3.46993 3.78059L4.10086 5.91313L0.626232 7.81347C0.457984 7.90548 0.457984 8.14713 0.626232 8.23914L4.06938 10.1223L3.46993 12.1484C3.41553 12.3323 3.58593 12.5036 3.77011 12.4502ZM5.66489 8.25948L7.04997 9.01701L7.8075 10.4021C7.89952 10.5703 8.14116 10.5703 8.23318 10.4021L8.9907 9.01701L10.3758 8.25948C10.544 8.16746 10.544 7.92582 10.3758 7.8338L8.9907 7.07628L8.23318 5.69119C8.14116 5.52295 7.89952 5.52295 7.8075 5.69119L7.04997 7.07628L5.66489 7.8338C5.49664 7.92582 5.49664 8.16746 5.66489 8.25948Z" fill="white"/>
</svg>
