<svg width="16" height="13" viewBox="0 0 16 13" fill="none" xmlns="http://www.w3.org/2000/svg">
<path fill-rule="evenodd" clip-rule="evenodd" d="M0.551111 6.69187C0.482996 6.57563 0.482961 6.43166 0.551019 6.31538L4.13947 0.184346C4.20629 0.070168 4.32867 0 4.46096 0H11.5772C11.7101 0 11.833 0.0708405 11.8996 0.18589L15.4487 6.31692C15.5155 6.43242 15.5155 6.57486 15.4486 6.69033L11.8996 12.8143C11.833 12.9292 11.7102 13 11.5773 13H4.46084C4.32861 13 4.20629 12.9299 4.13944 12.8158L0.551111 6.69187ZM8 10C9.933 10 11.5 8.433 11.5 6.5C11.5 4.567 9.933 3 8 3C6.067 3 4.5 4.567 4.5 6.5C4.5 8.433 6.067 10 8 10Z" fill="white"/>
</svg>
