<svg width="18" height="18" viewBox="0 0 18 18" fill="none" xmlns="http://www.w3.org/2000/svg">
<path fill-rule="evenodd" clip-rule="evenodd" d="M13.1529 1.83574L13.2051 6.41342L9.21234 8.3301L9.16311 4.0079L13.1529 1.83574Z" fill="white"/>
<path fill-rule="evenodd" clip-rule="evenodd" d="M17.1554 9.04901L13.2029 11.3098L9.24805 9.04543L13.2009 6.96913L17.1554 9.04901Z" fill="white"/>
<path fill-rule="evenodd" clip-rule="evenodd" d="M8.54507 9.04901L4.59255 11.3098L0.637702 9.04543L4.59051 6.96913L8.54507 9.04901Z" fill="white"/>
<path fill-rule="evenodd" clip-rule="evenodd" d="M4.54819 1.81697L8.65061 3.84874L8.54572 8.27643L4.67227 6.35805L4.54819 1.81697Z" fill="white"/>
<path fill-rule="evenodd" clip-rule="evenodd" d="M13.2645 16.2118L9.16214 14.18L9.26702 9.75232L13.1405 11.6707L13.2645 16.2118Z" fill="white"/>
<path fill-rule="evenodd" clip-rule="evenodd" d="M4.68985 16.253L4.63772 11.6753L8.63044 9.75861L8.67966 14.0808L4.68985 16.253Z" fill="white"/>
</svg>
