<svg width="14" height="14" viewBox="0 0 14 14" fill="none" xmlns="http://www.w3.org/2000/svg">
<path fill-rule="evenodd" clip-rule="evenodd" d="M12.4745 11.6261C12.4745 11.6261 10.7092 13.042 7.19629 12.456C4.53109 12.0115 3.10961 9.07355 3.10961 7.49436C3.10961 3.75016 5.88079 2.89811 7.75429 2.89811C9.62779 2.89811 10.85 4.72467 10.85 6.1389C10.85 7.55312 9.84972 8.79008 8.29314 8.79008C6.73657 8.79008 6.27555 7.69728 6.27555 6.69261C6.27555 5.68794 7.08841 5.33397 7.82971 5.33397C8.57102 5.33397 8.82487 5.96687 8.82487 6.51083C8.82487 7.05479 8.40282 7.24958 8.05079 7.24958C7.69876 7.24958 7.66394 7.07199 7.52922 6.88535C7.39449 6.69872 7.70105 5.99226 7.19629 5.99226C6.69153 5.99226 6.59744 6.80442 6.59744 6.80442C6.59744 6.80442 6.78146 8.37212 8.29314 8.34506C9.80483 8.31799 10.522 7.14933 10.3136 5.99226C10.1052 4.83519 8.98223 3.60568 7.01145 3.85413C5.04068 4.10257 4.23602 6.09386 4.5907 8.22187C4.94538 10.3499 7.49472 11.5829 9.49916 11.1393C11.5036 10.6957 13.5 9.24454 13.5 5.56534C13.5 1.88614 10.3136 -0.325395 6.51401 0.0390779C2.71446 0.403551 0.35587 3.72536 0.506841 7.7166C0.657811 11.7078 4.44502 13.8816 7.64749 13.9936C10.85 14.1057 12.8132 12.2518 12.8132 12.2518C12.8132 12.2518 13.2547 11.8581 13.0816 11.5506C12.9085 11.2432 12.4745 11.6261 12.4745 11.6261Z" fill="white"/>
</svg>
