<svg width="16" height="11" viewBox="0 0 16 11" fill="none" xmlns="http://www.w3.org/2000/svg">
<path fill-rule="evenodd" clip-rule="evenodd" d="M3.86832 10.9572C3.8074 10.9572 3.7648 10.8969 3.78513 10.8395L7.57383 0.134024C7.60226 0.053696 7.67822 0 7.76343 0H11.622C11.7075 0 11.7837 0.0541251 11.8119 0.134911L15.4919 10.6898C15.5375 10.8206 15.4404 10.9572 15.302 10.9572H3.86832ZM0.697785 11C0.557391 11 0.460194 10.8598 0.509439 10.7283L3.24776 3.41771C3.27718 3.33917 3.35224 3.28713 3.43611 3.28713H5.52888C5.66834 3.28713 5.76547 3.42562 5.71798 3.55675L3.07009 10.8674C3.04126 10.947 2.96566 11 2.88099 11H0.697785Z" fill="white"/>
</svg>
